<?plantuml 1.2026.2beta3?><svg xmlns="http://www.w3.org/2000/svg" xmlns:xlink="http://www.w3.org/1999/xlink" contentStyleType="text/css" data-diagram-type="DESCRIPTION" height="912px" preserveAspectRatio="none" style="width:1212px;height:912px;background:#FFFFFF;" version="1.1" viewBox="0 0 1212 912" width="1212px" zoomAndPan="magnify"><title>High-Level Scalable FTP Analyzer Architecture (100 Gbps)</title><defs/><g><g class="title" data-source-line="1"><text fill="#000000" font-family="sans-serif" font-size="14" font-weight="bold" lengthAdjust="spacing" textLength="458.1172" x="370.01" y="22.9951">High-Level Scalable FTP Analyzer Architecture (100 Gbps)</text></g><!--cluster Network Interface Layer--><g class="cluster" data-qualified-name="Network Interface Layer" data-source-line="9" id="ent0002"><path d="M512.5,43.2969 L705.4121,43.2969 A3.75,3.75 0 0 1 707.9121,45.7969 L714.9121,65.5938 L907.5,65.5938 A2.5,2.5 0 0 1 910,68.0938 L910,154.3869 A2.5,2.5 0 0 1 907.5,156.8869 L512.5,156.8869 A2.5,2.5 0 0 1 510,154.3869 L510,45.7969 A2.5,2.5 0 0 1 512.5,43.2969" fill="none" style="stroke:#000000;stroke-width:1.5;"/><line style="stroke:#000000;stroke-width:1.5;" x1="510" x2="714.9121" y1="65.5938" y2="65.5938"/><text fill="#000000" font-family="sans-serif" font-size="14" font-weight="bold" lengthAdjust="spacing" textLength="191.9121" x="514" y="58.292">Network Interface Layer</text></g><!--cluster RX Queue Layer--><g class="cluster" data-qualified-name="RX Queue Layer" data-source-line="24" id="ent0007"><path d="M538.5,205.8869 L665.541,205.8869 A3.75,3.75 0 0 1 668.041,208.3869 L675.041,228.1837 L853.5,228.1837 A2.5,2.5 0 0 1 856,230.6837 L856,309.7869 A2.5,2.5 0 0 1 853.5,312.2869 L538.5,312.2869 A2.5,2.5 0 0 1 536,309.7869 L536,208.3869 A2.5,2.5 0 0 1 538.5,205.8869" fill="none" style="stroke:#000000;stroke-width:1.5;"/><line style="stroke:#000000;stroke-width:1.5;" x1="536" x2="675.041" y1="228.1837" y2="228.1837"/><text fill="#000000" font-family="sans-serif" font-size="14" font-weight="bold" lengthAdjust="spacing" textLength="126.041" x="540" y="220.882">RX Queue Layer</text></g><!--cluster Distribution Layer--><g class="cluster" data-qualified-name="Distribution Layer" data-source-line="39" id="ent0012"><path d="M279.5,345.2869 L423.4805,345.2869 A3.75,3.75 0 0 1 425.9805,347.7869 L432.9805,367.5838 L888.5,367.5838 A2.5,2.5 0 0 1 891,370.0838 L891,456.3769 A2.5,2.5 0 0 1 888.5,458.8769 L279.5,458.8769 A2.5,2.5 0 0 1 277,456.3769 L277,347.7869 A2.5,2.5 0 0 1 279.5,345.2869" fill="none" style="stroke:#000000;stroke-width:1.5;"/><line style="stroke:#000000;stroke-width:1.5;" x1="277" x2="432.9805" y1="367.5838" y2="367.5838"/><text fill="#000000" font-family="sans-serif" font-size="14" font-weight="bold" lengthAdjust="spacing" textLength="142.9805" x="281" y="360.282">Distribution Layer</text></g><!--cluster Worker Processing Layer--><g class="cluster" data-qualified-name="Worker Processing Layer" data-source-line="55" id="ent0018"><path d="M8.5,491.8769 L206.8467,491.8769 A3.75,3.75 0 0 1 209.3467,494.3769 L216.3467,514.1737 L995.5,514.1737 A2.5,2.5 0 0 1 998,516.6737 L998,610.9069 A2.5,2.5 0 0 1 995.5,613.4069 L8.5,613.4069 A2.5,2.5 0 0 1 6,610.9069 L6,494.3769 A2.5,2.5 0 0 1 8.5,491.8769" fill="none" style="stroke:#000000;stroke-width:1.5;"/><line style="stroke:#000000;stroke-width:1.5;" x1="6" x2="216.3467" y1="514.1737" y2="514.1737"/><text fill="#000000" font-family="sans-serif" font-size="14" font-weight="bold" lengthAdjust="spacing" textLength="197.3467" x="10" y="506.872">Worker Processing Layer</text></g><!--cluster Storage Layer--><g class="cluster" data-qualified-name="Storage Layer" data-source-line="77" id="ent0028"><path d="M403.5,646.4069 L515.5293,646.4069 A3.75,3.75 0 0 1 518.0293,648.9069 L525.0293,668.7037 L778.5,668.7037 A2.5,2.5 0 0 1 781,671.2037 L781,757.5069 A2.5,2.5 0 0 1 778.5,760.0069 L403.5,760.0069 A2.5,2.5 0 0 1 401,757.5069 L401,648.9069 A2.5,2.5 0 0 1 403.5,646.4069" fill="none" style="stroke:#000000;stroke-width:1.5;"/><line style="stroke:#000000;stroke-width:1.5;" x1="401" x2="525.0293" y1="668.7037" y2="668.7037"/><text fill="#000000" font-family="sans-serif" font-size="14" font-weight="bold" lengthAdjust="spacing" textLength="111.0293" x="405" y="661.402">Storage Layer</text></g><!--cluster Metadata Layer--><g class="cluster" data-qualified-name="Metadata Layer" data-source-line="92" id="ent0033"><path d="M173.5,793.0069 L298.4424,793.0069 A3.75,3.75 0 0 1 300.9424,795.5069 L307.9424,815.3037 L497.5,815.3037 A2.5,2.5 0 0 1 500,817.8037 L500,903.0969 A2.5,2.5 0 0 1 497.5,905.5969 L173.5,905.5969 A2.5,2.5 0 0 1 171,903.0969 L171,795.5069 A2.5,2.5 0 0 1 173.5,793.0069" fill="none" style="stroke:#000000;stroke-width:1.5;"/><line style="stroke:#000000;stroke-width:1.5;" x1="171" x2="307.9424" y1="815.3037" y2="815.3037"/><text fill="#000000" font-family="sans-serif" font-size="14" font-weight="bold" lengthAdjust="spacing" textLength="123.9424" x="175" y="808.002">Metadata Layer</text></g><!--entity NIC--><g class="entity" data-qualified-name="Network Interface Layer.NIC" data-source-line="11" id="ent0003"><rect fill="#F1F1F1" height="62.5938" rx="2.5" ry="2.5" style="stroke:#181818;stroke-width:0.5;" width="169.3223" x="526.34" y="78.2969"/><rect fill="#F1F1F1" height="10" style="stroke:#181818;stroke-width:0.5;" width="15" x="675.6623" y="83.2969"/><rect fill="#F1F1F1" height="2" style="stroke:#181818;stroke-width:0.5;" width="4" x="673.6623" y="85.2969"/><rect fill="#F1F1F1" height="2" style="stroke:#181818;stroke-width:0.5;" width="4" x="673.6623" y="89.2969"/><text fill="#000000" font-family="sans-serif" font-size="14" lengthAdjust="spacing" textLength="66.3975" x="541.34" y="111.292">100G NIC</text><text fill="#000000" font-family="sans-serif" font-size="14" lengthAdjust="spacing" textLength="129.3223" x="541.34" y="127.5889">(25G x 4 Optional)</text></g><g class="entity" data-qualified-name="Network Interface Layer.GMN4" data-source-line="14" id="ent0005"><path d="M730.39,81.8869 L730.39,105.5869 L695.8,109.5869 L730.39,113.5869 L730.39,137.2853 A0,0 0 0 0 730.39,137.2853 L893.6092,137.2853 A0,0 0 0 0 893.6092,137.2853 L893.6092,91.8869 L883.6092,81.8869 L730.39,81.8869 A0,0 0 0 0 730.39,81.8869" fill="#FEFFDD" style="stroke:#181818;stroke-width:0.5;"/><path d="M883.6092,81.8869 L883.6092,91.8869 L893.6092,91.8869 L883.6092,81.8869" fill="#FEFFDD" style="stroke:#181818;stroke-width:0.5;"/><text fill="#000000" font-family="sans-serif" font-size="13" lengthAdjust="spacing" textLength="100.6104" x="736.39" y="98.9538">High-speed NIC</text><text fill="#000000" font-family="sans-serif" font-size="13" lengthAdjust="spacing" textLength="96.4082" x="736.39" y="114.0866">RSS + rte_flow</text><text fill="#000000" font-family="sans-serif" font-size="13" lengthAdjust="spacing" textLength="142.2192" x="736.39" y="129.2194">Kernel bypass (DPDK)</text></g><!--entity RX--><g class="entity" data-qualified-name="RX Queue Layer.RX" data-source-line="26" id="ent0008"><rect fill="#F1F1F1" height="46.2969" rx="2.5" ry="2.5" style="stroke:#181818;stroke-width:0.5;" width="117.0547" x="552.47" y="245.4369"/><rect fill="#F1F1F1" height="10" style="stroke:#181818;stroke-width:0.5;" width="15" x="649.5247" y="250.4369"/><rect fill="#F1F1F1" height="2" style="stroke:#181818;stroke-width:0.5;" width="4" x="647.5247" y="252.4369"/><rect fill="#F1F1F1" height="2" style="stroke:#181818;stroke-width:0.5;" width="4" x="647.5247" y="256.4369"/><text fill="#000000" font-family="sans-serif" font-size="14" lengthAdjust="spacing" textLength="77.0547" x="567.47" y="278.432">RX Queues</text></g><g class="entity" data-qualified-name="RX Queue Layer.GMN9" data-source-line="29" id="ent0010"><path d="M704.04,240.8869 L704.04,264.5869 L669.8,268.5869 L704.04,272.5869 L704.04,296.2853 A0,0 0 0 0 704.04,296.2853 L839.9516,296.2853 A0,0 0 0 0 839.9516,296.2853 L839.9516,250.8869 L829.9516,240.8869 L704.04,240.8869 A0,0 0 0 0 704.04,240.8869" fill="#FEFFDD" style="stroke:#181818;stroke-width:0.5;"/><path d="M829.9516,240.8869 L829.9516,250.8869 L839.9516,250.8869 L829.9516,240.8869" fill="#FEFFDD" style="stroke:#181818;stroke-width:0.5;"/><text fill="#000000" font-family="sans-serif" font-size="13" lengthAdjust="spacing" textLength="114.9116" x="710.04" y="257.9538">Hardware queues</text><text fill="#000000" font-family="sans-serif" font-size="13" lengthAdjust="spacing" textLength="80.501" x="710.04" y="273.0866">Flow locality</text><text fill="#000000" font-family="sans-serif" font-size="13" lengthAdjust="spacing" textLength="99.5376" x="710.04" y="288.2194">Low contention</text></g><!--entity D1--><g class="entity" data-qualified-name="Distribution Layer.D1" data-source-line="41" id="ent0013"><rect fill="#F1F1F1" height="62.5938" rx="2.5" ry="2.5" style="stroke:#181818;stroke-width:0.5;" width="167.2236" x="707.39" y="380.2869"/><rect fill="#F1F1F1" height="10" style="stroke:#181818;stroke-width:0.5;" width="15" x="854.6136" y="385.2869"/><rect fill="#F1F1F1" height="2" style="stroke:#181818;stroke-width:0.5;" width="4" x="852.6136" y="387.2869"/><rect fill="#F1F1F1" height="2" style="stroke:#181818;stroke-width:0.5;" width="4" x="852.6136" y="391.2869"/><text fill="#000000" font-family="sans-serif" font-size="14" lengthAdjust="spacing" textLength="126.998" x="722.39" y="413.282">Distributor lcore 1</text><text fill="#000000" font-family="sans-serif" font-size="14" lengthAdjust="spacing" textLength="127.2236" x="722.39" y="429.5789">(librte_distributor)</text></g><!--entity D2--><g class="entity" data-qualified-name="Distribution Layer.D2" data-source-line="42" id="ent0014"><rect fill="#F1F1F1" height="62.5938" rx="2.5" ry="2.5" style="stroke:#181818;stroke-width:0.5;" width="167.2236" x="293.39" y="380.2869"/><rect fill="#F1F1F1" height="10" style="stroke:#181818;stroke-width:0.5;" width="15" x="440.6136" y="385.2869"/><rect fill="#F1F1F1" height="2" style="stroke:#181818;stroke-width:0.5;" width="4" x="438.6136" y="387.2869"/><rect fill="#F1F1F1" height="2" style="stroke:#181818;stroke-width:0.5;" width="4" x="438.6136" y="391.2869"/><text fill="#000000" font-family="sans-serif" font-size="14" lengthAdjust="spacing" textLength="126.998" x="308.39" y="413.282">Distributor lcore 2</text><text fill="#000000" font-family="sans-serif" font-size="14" lengthAdjust="spacing" textLength="127.2236" x="308.39" y="429.5789">(librte_distributor)</text></g><g class="entity" data-qualified-name="Distribution Layer.GMN15" data-source-line="45" id="ent0016"><path d="M495.17,383.8869 L495.17,407.5769 L461.09,411.5769 L495.17,415.5769 L495.17,439.2853 A0,0 0 0 0 495.17,439.2853 L672.8365,439.2853 A0,0 0 0 0 672.8365,439.2853 L672.8365,393.8869 L662.8365,383.8869 L495.17,383.8869 A0,0 0 0 0 495.17,383.8869" fill="#FEFFDD" style="stroke:#181818;stroke-width:0.5;"/><path d="M662.8365,383.8869 L662.8365,393.8869 L672.8365,393.8869 L662.8365,383.8869" fill="#FEFFDD" style="stroke:#181818;stroke-width:0.5;"/><text fill="#000000" font-family="sans-serif" font-size="13" lengthAdjust="spacing" textLength="156.6665" x="501.17" y="400.9538">Dynamic load balancing</text><text fill="#000000" font-family="sans-serif" font-size="13" lengthAdjust="spacing" textLength="119.9517" x="501.17" y="416.0866">Lock-free dispatch</text><text fill="#000000" font-family="sans-serif" font-size="13" lengthAdjust="spacing" textLength="126.8579" x="501.17" y="431.2194">Prevents starvation</text></g><!--entity W1--><g class="entity" data-qualified-name="Worker Processing Layer.W1" data-source-line="57" id="ent0019"><rect fill="#F1F1F1" height="46.2969" rx="2.5" ry="2.5" style="stroke:#181818;stroke-width:0.5;" width="103.998" x="739" y="538.9969"/><rect fill="#F1F1F1" height="10" style="stroke:#181818;stroke-width:0.5;" width="15" x="822.998" y="543.9969"/><rect fill="#F1F1F1" height="2" style="stroke:#181818;stroke-width:0.5;" width="4" x="820.998" y="545.9969"/><rect fill="#F1F1F1" height="2" style="stroke:#181818;stroke-width:0.5;" width="4" x="820.998" y="549.9969"/><text fill="#000000" font-family="sans-serif" font-size="14" lengthAdjust="spacing" textLength="63.998" x="754" y="571.992">Worker 1</text></g><!--entity W2--><g class="entity" data-qualified-name="Worker Processing Layer.W2" data-source-line="58" id="ent0020"><rect fill="#F1F1F1" height="46.2969" rx="2.5" ry="2.5" style="stroke:#181818;stroke-width:0.5;" width="103.998" x="600" y="538.9969"/><rect fill="#F1F1F1" height="10" style="stroke:#181818;stroke-width:0.5;" width="15" x="683.998" y="543.9969"/><rect fill="#F1F1F1" height="2" style="stroke:#181818;stroke-width:0.5;" width="4" x="681.998" y="545.9969"/><rect fill="#F1F1F1" height="2" style="stroke:#181818;stroke-width:0.5;" width="4" x="681.998" y="549.9969"/><text fill="#000000" font-family="sans-serif" font-size="14" lengthAdjust="spacing" textLength="63.998" x="615" y="571.992">Worker 2</text></g><!--entity W3--><g class="entity" data-qualified-name="Worker Processing Layer.W3" data-source-line="59" id="ent0021"><rect fill="#F1F1F1" height="46.2969" rx="2.5" ry="2.5" style="stroke:#181818;stroke-width:0.5;" width="103.998" x="878" y="538.9969"/><rect fill="#F1F1F1" height="10" style="stroke:#181818;stroke-width:0.5;" width="15" x="961.998" y="543.9969"/><rect fill="#F1F1F1" height="2" style="stroke:#181818;stroke-width:0.5;" width="4" x="959.998" y="545.9969"/><rect fill="#F1F1F1" height="2" style="stroke:#181818;stroke-width:0.5;" width="4" x="959.998" y="549.9969"/><text fill="#000000" font-family="sans-serif" font-size="14" lengthAdjust="spacing" textLength="63.998" x="893" y="571.992">Worker 3</text></g><!--entity W4--><g class="entity" data-qualified-name="Worker Processing Layer.W4" data-source-line="61" id="ent0022"><rect fill="#F1F1F1" height="46.2969" rx="2.5" ry="2.5" style="stroke:#181818;stroke-width:0.5;" width="103.998" x="322" y="538.9969"/><rect fill="#F1F1F1" height="10" style="stroke:#181818;stroke-width:0.5;" width="15" x="405.998" y="543.9969"/><rect fill="#F1F1F1" height="2" style="stroke:#181818;stroke-width:0.5;" width="4" x="403.998" y="545.9969"/><rect fill="#F1F1F1" height="2" style="stroke:#181818;stroke-width:0.5;" width="4" x="403.998" y="549.9969"/><text fill="#000000" font-family="sans-serif" font-size="14" lengthAdjust="spacing" textLength="63.998" x="337" y="571.992">Worker 4</text></g><!--entity W5--><g class="entity" data-qualified-name="Worker Processing Layer.W5" data-source-line="62" id="ent0023"><rect fill="#F1F1F1" height="46.2969" rx="2.5" ry="2.5" style="stroke:#181818;stroke-width:0.5;" width="103.998" x="461" y="538.9969"/><rect fill="#F1F1F1" height="10" style="stroke:#181818;stroke-width:0.5;" width="15" x="544.998" y="543.9969"/><rect fill="#F1F1F1" height="2" style="stroke:#181818;stroke-width:0.5;" width="4" x="542.998" y="545.9969"/><rect fill="#F1F1F1" height="2" style="stroke:#181818;stroke-width:0.5;" width="4" x="542.998" y="549.9969"/><text fill="#000000" font-family="sans-serif" font-size="14" lengthAdjust="spacing" textLength="63.998" x="476" y="571.992">Worker 5</text></g><!--entity W6--><g class="entity" data-qualified-name="Worker Processing Layer.W6" data-source-line="63" id="ent0024"><rect fill="#F1F1F1" height="46.2969" rx="2.5" ry="2.5" style="stroke:#181818;stroke-width:0.5;" width="103.998" x="22" y="538.9969"/><rect fill="#F1F1F1" height="10" style="stroke:#181818;stroke-width:0.5;" width="15" x="105.998" y="543.9969"/><rect fill="#F1F1F1" height="2" style="stroke:#181818;stroke-width:0.5;" width="4" x="103.998" y="545.9969"/><rect fill="#F1F1F1" height="2" style="stroke:#181818;stroke-width:0.5;" width="4" x="103.998" y="549.9969"/><text fill="#000000" font-family="sans-serif" font-size="14" lengthAdjust="spacing" textLength="63.998" x="37" y="571.992">Worker 6</text></g><g class="entity" data-qualified-name="Worker Processing Layer.GMN25" data-source-line="66" id="ent0026"><path d="M161.47,526.8769 L161.47,558.1469 L126.44,562.1469 L161.47,566.1469 L161.47,597.4081 A0,0 0 0 0 161.47,597.4081 L286.5335,597.4081 A0,0 0 0 0 286.5335,597.4081 L286.5335,536.8769 L276.5335,526.8769 L161.47,526.8769 A0,0 0 0 0 161.47,526.8769" fill="#FEFFDD" style="stroke:#181818;stroke-width:0.5;"/><path d="M276.5335,526.8769 L276.5335,536.8769 L286.5335,536.8769 L276.5335,526.8769" fill="#FEFFDD" style="stroke:#181818;stroke-width:0.5;"/><text fill="#000000" font-family="sans-serif" font-size="13" lengthAdjust="spacing" textLength="96.1479" x="167.47" y="543.9438">Packet parsing</text><text fill="#000000" font-family="sans-serif" font-size="13" lengthAdjust="spacing" textLength="104.0635" x="167.47" y="559.0766">TCP reassembly</text><text fill="#000000" font-family="sans-serif" font-size="13" lengthAdjust="spacing" textLength="78.9014" x="167.47" y="574.2094">File building</text><text fill="#000000" font-family="sans-serif" font-size="13" lengthAdjust="spacing" textLength="83.3892" x="167.47" y="589.3422">NUMA aware</text></g><!--entity STORE--><g class="entity" data-qualified-name="Storage Layer.STORE" data-source-line="79" id="ent0029"><rect fill="#F1F1F1" height="62.5938" rx="2.5" ry="2.5" style="stroke:#181818;stroke-width:0.5;" width="177.0742" x="417.46" y="681.4069"/><rect fill="#F1F1F1" height="10" style="stroke:#181818;stroke-width:0.5;" width="15" x="574.5342" y="686.4069"/><rect fill="#F1F1F1" height="2" style="stroke:#181818;stroke-width:0.5;" width="4" x="572.5342" y="688.4069"/><rect fill="#F1F1F1" height="2" style="stroke:#181818;stroke-width:0.5;" width="4" x="572.5342" y="692.4069"/><text fill="#000000" font-family="sans-serif" font-size="14" lengthAdjust="spacing" textLength="137.0742" x="432.46" y="714.402">Distributed Storage</text><text fill="#000000" font-family="sans-serif" font-size="14" lengthAdjust="spacing" textLength="130.3477" x="432.46" y="730.6989">(S3 / Ceph / HDFS)</text></g><g class="entity" data-qualified-name="Storage Layer.GMN30" data-source-line="82" id="ent0031"><path d="M629.28,685.0069 L629.28,708.7069 L594.79,712.7069 L629.28,716.7069 L629.28,740.4053 A0,0 0 0 0 629.28,740.4053 L764.7155,740.4053 A0,0 0 0 0 764.7155,740.4053 L764.7155,695.0069 L754.7155,685.0069 L629.28,685.0069 A0,0 0 0 0 629.28,685.0069" fill="#FEFFDD" style="stroke:#181818;stroke-width:0.5;"/><path d="M754.7155,685.0069 L754.7155,695.0069 L764.7155,695.0069 L754.7155,685.0069" fill="#FEFFDD" style="stroke:#181818;stroke-width:0.5;"/><text fill="#000000" font-family="sans-serif" font-size="13" lengthAdjust="spacing" textLength="106.9644" x="635.28" y="702.0738">High throughput</text><text fill="#000000" font-family="sans-serif" font-size="13" lengthAdjust="spacing" textLength="87.8325" x="635.28" y="717.2066">Fault tolerant</text><text fill="#000000" font-family="sans-serif" font-size="13" lengthAdjust="spacing" textLength="114.4355" x="635.28" y="732.3394">Streaming output</text></g><!--entity META--><g class="entity" data-qualified-name="Metadata Layer.META" data-source-line="94" id="ent0034"><path d="M186.72,838.0069 C186.72,828.0069 265.0042,828.0069 265.0042,828.0069 C265.0042,828.0069 343.2884,828.0069 343.2884,838.0069 L343.2884,879.6006 C343.2884,889.6006 265.0042,889.6006 265.0042,889.6006 C265.0042,889.6006 186.72,889.6006 186.72,879.6006 L186.72,838.0069" fill="#F1F1F1" style="stroke:#181818;stroke-width:0.5;"/><path d="M186.72,838.0069 C186.72,848.0069 265.0042,848.0069 265.0042,848.0069 C265.0042,848.0069 343.2884,848.0069 343.2884,838.0069" fill="none" style="stroke:#181818;stroke-width:0.5;"/><text fill="#000000" font-family="sans-serif" font-size="14" lengthAdjust="spacing" textLength="122.4863" x="196.72" y="865.002">Metadata Service</text><text fill="#000000" font-family="sans-serif" font-size="14" lengthAdjust="spacing" textLength="136.5684" x="196.72" y="881.2989">(Redis / Cassandra)</text></g><g class="entity" data-qualified-name="Metadata Layer.GMN35" data-source-line="97" id="ent0036"><path d="M378.47,831.0969 L378.47,854.7969 L343.46,858.7969 L378.47,862.7969 L378.47,886.4953 A0,0 0 0 0 378.47,886.4953 L483.5384,886.4953 A0,0 0 0 0 483.5384,886.4953 L483.5384,841.0969 L473.5384,831.0969 L378.47,831.0969 A0,0 0 0 0 378.47,831.0969" fill="#FEFFDD" style="stroke:#181818;stroke-width:0.5;"/><path d="M473.5384,831.0969 L473.5384,841.0969 L483.5384,841.0969 L473.5384,831.0969" fill="#FEFFDD" style="stroke:#181818;stroke-width:0.5;"/><text fill="#000000" font-family="sans-serif" font-size="13" lengthAdjust="spacing" textLength="78.1143" x="384.47" y="848.1638">Session info</text><text fill="#000000" font-family="sans-serif" font-size="13" lengthAdjust="spacing" textLength="84.0684" x="384.47" y="863.2966">File mapping</text><text fill="#000000" font-family="sans-serif" font-size="13" lengthAdjust="spacing" textLength="30.2212" x="384.47" y="878.4294">Logs</text></g><g class="entity" data-qualified-name="GMN54" data-source-line="134" id="ent0055"><path d="M1016.87,542.0069 L1016.87,582.2725 L1205.1371,582.2725 L1205.1371,552.0069 L1195.1371,542.0069 L1016.87,542.0069" fill="#FEFFDD" style="stroke:#181818;stroke-width:0.5;"/><path d="M1195.1371,542.0069 L1195.1371,552.0069 L1205.1371,552.0069 L1195.1371,542.0069" fill="#FEFFDD" style="stroke:#181818;stroke-width:1;"/><text fill="#000000" font-family="sans-serif" font-size="13" lengthAdjust="spacing" textLength="167.2671" x="1022.87" y="559.0738">Each distributor manages</text><text fill="#000000" font-family="sans-serif" font-size="13" lengthAdjust="spacing" textLength="108.7925" x="1022.87" y="574.2066">multiple workers</text></g><g class="entity" data-qualified-name="GMN57" data-source-line="139" id="ent0058"><path d="M799.99,692.5769 L799.99,732.8425 A0,0 0 0 0 799.99,732.8425 L982.0173,732.8425 A0,0 0 0 0 982.0173,732.8425 L982.0173,702.5769 L972.0173,692.5769 L881.91,692.5769 L806.19,585.7069 L873.91,692.5769 L799.99,692.5769 A0,0 0 0 0 799.99,692.5769" fill="#FEFFDD" style="stroke:#181818;stroke-width:0.5;"/><path d="M972.0173,692.5769 L972.0173,702.5769 L982.0173,702.5769 L972.0173,692.5769" fill="#FEFFDD" style="stroke:#181818;stroke-width:0.5;"/><text fill="#000000" font-family="sans-serif" font-size="13" lengthAdjust="spacing" textLength="83.5605" x="805.99" y="709.6438">Flow affinity:</text><text fill="#000000" font-family="sans-serif" font-size="13" lengthAdjust="spacing" textLength="161.0273" x="805.99" y="724.7766">One TCP flow per worker</text></g><g class="entity" data-qualified-name="GMN60" data-source-line="144" id="ent0061"><path d="M518.32,838.6669 L518.32,878.9325 A0,0 0 0 0 518.32,878.9325 L679.6794,878.9325 A0,0 0 0 0 679.6794,878.9325 L679.6794,848.6669 L669.6794,838.6669 L590.43,838.6669 L525.72,744.2669 L582.43,838.6669 L518.32,838.6669 A0,0 0 0 0 518.32,838.6669" fill="#FEFFDD" style="stroke:#181818;stroke-width:0.5;"/><path d="M669.6794,838.6669 L669.6794,848.6669 L679.6794,848.6669 L669.6794,838.6669" fill="#FEFFDD" style="stroke:#181818;stroke-width:0.5;"/><text fill="#000000" font-family="sans-serif" font-size="13" lengthAdjust="spacing" textLength="140.3594" x="524.32" y="855.7338">Backpressure applied</text><text fill="#000000" font-family="sans-serif" font-size="13" lengthAdjust="spacing" textLength="101.5815" x="524.32" y="870.8666">if storage slows</text></g><!--link NIC to RX--><g class="link" data-entity-1="ent0003" data-entity-2="ent0008" data-link-type="dependency" data-source-line="107" id="lnk38"><path d="M611,141.2369 C611,171.7469 611,211.8769 611,239.1369" fill="none" id="NIC-to-RX" style="stroke:#181818;stroke-width:1;"/><polygon fill="#181818" points="611,245.1369,615,236.1369,611,240.1369,607,236.1369,611,245.1369" style="stroke:#181818;stroke-width:1;"/><text fill="#000000" font-family="sans-serif" font-size="13" lengthAdjust="spacing" textLength="126.7817" x="612" y="185.9538">RSS / Flow Steering</text></g><!--link RX to D1--><g class="link" data-entity-1="ent0008" data-entity-2="ent0013" data-link-type="dependency" data-source-line="109" id="lnk39"><path d="M639.52,291.9269 C669.86,315.6869 713.3171,349.7264 747.1771,376.2564" fill="none" id="RX-to-D1" style="stroke:#181818;stroke-width:1;"/><polygon fill="#181818" points="751.9,379.9569,747.2826,371.2575,747.9642,376.8731,742.3486,377.5547,751.9,379.9569" style="stroke:#181818;stroke-width:1;"/></g><!--link RX to D2--><g class="link" data-entity-1="ent0008" data-entity-2="ent0014" data-link-type="dependency" data-source-line="110" id="lnk40"><path d="M562.3,292.0969 C536.69,304.4969 505.07,320.7169 478,337.2869 C456.93,350.1769 439.3997,362.5265 421.1097,376.2465" fill="none" id="RX-to-D2" style="stroke:#181818;stroke-width:1;"/><polygon fill="#181818" points="416.31,379.8469,425.9098,377.646,420.3097,376.8465,421.1092,371.2465,416.31,379.8469" style="stroke:#181818;stroke-width:1;"/></g><!--link D1 to W1--><g class="link" data-entity-1="ent0013" data-entity-2="ent0019" data-link-type="dependency" data-source-line="112" id="lnk41"><path d="M791,443.3669 C791,471.7469 791,507.2269 791,532.6269" fill="none" id="D1-to-W1" style="stroke:#181818;stroke-width:1;"/><polygon fill="#181818" points="791,538.6269,795,529.6269,791,533.6269,787,529.6269,791,538.6269" style="stroke:#181818;stroke-width:1;"/></g><!--link D1 to W2--><g class="link" data-entity-1="ent0013" data-entity-2="ent0020" data-link-type="dependency" data-source-line="113" id="lnk42"><path d="M760.89,443.2469 C748.72,455.7569 734.6,470.4269 722,483.8769 C704.93,502.1069 689.9244,518.6687 676.0244,534.1787" fill="none" id="D1-to-W2" style="stroke:#181818;stroke-width:1;"/><polygon fill="#181818" points="672.02,538.6469,681.0054,534.6142,675.357,534.9234,675.0478,529.275,672.02,538.6469" style="stroke:#181818;stroke-width:1;"/></g><!--link D1 to W3--><g class="link" data-entity-1="ent0013" data-entity-2="ent0021" data-link-type="dependency" data-source-line="114" id="lnk43"><path d="M821.11,443.2469 C833.28,455.7569 847.4,470.4269 860,483.8769 C877.07,502.1069 892.0756,518.6687 905.9756,534.1787" fill="none" id="D1-to-W3" style="stroke:#181818;stroke-width:1;"/><polygon fill="#181818" points="909.98,538.6469,906.9522,529.275,906.643,534.9234,900.9946,534.6142,909.98,538.6469" style="stroke:#181818;stroke-width:1;"/></g><!--link D2 to W4--><g class="link" data-entity-1="ent0014" data-entity-2="ent0022" data-link-type="dependency" data-source-line="116" id="lnk44"><path d="M376.38,443.3669 C375.81,471.7469 375.0928,507.2281 374.5728,532.6281" fill="none" id="D2-to-W4" style="stroke:#181818;stroke-width:1;"/><polygon fill="#181818" points="374.45,538.6269,378.6334,529.7106,374.5523,533.6279,370.6351,529.5469,374.45,538.6269" style="stroke:#181818;stroke-width:1;"/></g><!--link D2 to W5--><g class="link" data-entity-1="ent0014" data-entity-2="ent0023" data-link-type="dependency" data-source-line="117" id="lnk45"><path d="M405.34,443.0469 C417.03,455.6569 430.7,470.4469 443,483.8769 C459.87,502.2969 474.8675,518.865 488.8275,534.315" fill="none" id="D2-to-W5" style="stroke:#181818;stroke-width:1;"/><polygon fill="#181818" points="492.85,538.7669,489.7841,529.4074,489.4979,535.057,483.8483,534.7708,492.85,538.7669" style="stroke:#181818;stroke-width:1;"/></g><!--link D2 to W6--><g class="link" data-entity-1="ent0014" data-entity-2="ent0024" data-link-type="dependency" data-source-line="118" id="lnk46"><path d="M293.13,426.8369 C246.6,437.4469 189.17,455.1869 144,483.8769 C121.54,498.1469 105.3479,516.6756 92.6079,533.9756" fill="none" id="D2-to-W6" style="stroke:#181818;stroke-width:1;"/><polygon fill="#181818" points="89.05,538.8069,97.6077,533.9318,92.0149,534.7808,91.1659,529.188,89.05,538.8069" style="stroke:#181818;stroke-width:1;"/></g><!--link W1 to STORE--><g class="link" data-entity-1="ent0019" data-entity-2="ent0029" data-link-type="dependency" data-source-line="120" id="lnk47"><path d="M770.13,585.7369 C757.22,598.2769 739.59,613.0069 721,621.4069 C676.32,641.5969 657.54,620.2269 612,638.4069 C586.44,648.6169 565.703,662.2492 546.143,677.4892" fill="none" id="W1-to-STORE" style="stroke:#181818;stroke-width:1;"/><polygon fill="#181818" points="541.41,681.1769,550.9679,678.8007,545.3542,678.1038,546.051,672.4901,541.41,681.1769" style="stroke:#181818;stroke-width:1;"/></g><!--link W2 to STORE--><g class="link" data-entity-1="ent0020" data-entity-2="ent0029" data-link-type="dependency" data-source-line="121" id="lnk48"><path d="M629.83,585.7069 C604.86,611.1169 568.3455,648.2674 540.4655,676.6374" fill="none" id="W2-to-STORE" style="stroke:#181818;stroke-width:1;"/><polygon fill="#181818" points="536.26,680.9169,545.4212,677.3014,539.7646,677.3507,539.7153,671.694,536.26,680.9169" style="stroke:#181818;stroke-width:1;"/></g><!--link W3 to STORE--><g class="link" data-entity-1="ent0021" data-entity-2="ent0029" data-link-type="dependency" data-source-line="122" id="lnk49"><path d="M909.98,585.7369 C897.11,598.6269 879.23,613.6969 860,621.4069 C808.73,641.9669 664.14,620.1569 612,638.4069 C585.6,647.6469 564.3922,661.5849 544.8122,677.2749" fill="none" id="W3-to-STORE" style="stroke:#181818;stroke-width:1;"/><polygon fill="#181818" points="540.13,681.0269,549.6546,678.5204,544.0318,677.9002,544.652,672.2775,540.13,681.0269" style="stroke:#181818;stroke-width:1;"/></g><!--link W4 to STORE--><g class="link" data-entity-1="ent0022" data-entity-2="ent0029" data-link-type="dependency" data-source-line="123" id="lnk50"><path d="M394.05,585.7069 C416.62,611.1169 449.4445,648.0618 474.6545,676.4318" fill="none" id="W4-to-STORE" style="stroke:#181818;stroke-width:1;"/><polygon fill="#181818" points="478.64,680.9169,475.6518,671.5323,475.3188,677.1793,469.6717,676.8463,478.64,680.9169" style="stroke:#181818;stroke-width:1;"/></g><!--link W5 to STORE--><g class="link" data-entity-1="ent0023" data-entity-2="ent0029" data-link-type="dependency" data-source-line="124" id="lnk51"><path d="M511.94,585.7069 C510.74,611.1169 509.0731,646.5536 507.7331,674.9236" fill="none" id="W5-to-STORE" style="stroke:#181818;stroke-width:1;"/><polygon fill="#181818" points="507.45,680.9169,511.8702,672.1156,507.6859,675.9224,503.8791,671.7382,507.45,680.9169" style="stroke:#181818;stroke-width:1;"/></g><!--link W6 to STORE--><g class="link" data-entity-1="ent0024" data-entity-2="ent0029" data-link-type="dependency" data-source-line="125" id="lnk52"><path d="M95.77,585.6969 C108.72,597.9169 126.09,612.3269 144,621.4069 C231.23,665.6469 335.5716,688.183 411.3516,699.993" fill="none" id="W6-to-STORE" style="stroke:#181818;stroke-width:1;"/><polygon fill="#181818" points="417.28,700.9169,409.0033,695.5787,412.3396,700.1469,407.7714,703.4833,417.28,700.9169" style="stroke:#181818;stroke-width:1;"/></g><!--link STORE to META--><g class="link" data-entity-1="ent0029" data-entity-2="ent0034" data-link-type="dependency" data-source-line="127" id="lnk53"><path d="M436.68,744.4569 C412.22,756.1669 384.87,770.2669 361,785.0069 C340.35,797.7469 323.4061,810.165 305.9061,824.005" fill="none" id="STORE-to-META" style="stroke:#181818;stroke-width:1;"/><polygon fill="#181818" points="301.2,827.7269,310.7404,825.2815,305.1218,824.6253,305.7779,819.0066,301.2,827.7269" style="stroke:#181818;stroke-width:1;"/></g><!--link D1 to GMN54--><g class="link" data-entity-1="ent0013" data-entity-2="ent0055" data-link-type="association" data-source-line="134" id="lnk56"><path d="M874.92,435.8569 C913.4,447.9369 959.03,464.2869 998,483.8769 C1030.49,500.2069 1064.51,524.6169 1086.62,541.6169" fill="none" id="D1-GMN54" style="stroke:#181818;stroke-width:1;stroke-dasharray:7,7;"/></g><?plantuml-src dLRTJzim47_FNt7YPQ09GRzuGDeaHcb1Wz8rJF0mQNAIQskHsfxjq7NJ_lUTxRGDh66bUObz7vRlTx-xi-KsHxZaa-dXDJvX3d7ASfQGh7StX3F1yiKlr72cqoctcDf28-mtZe-XdoXp44LMAh0I4ccjd476DTbmAQBe7Nnu_IEB0Tgvr8zm9IpgCKiHhja2zHQ-aMBf8viWxDMSiGU_emZeI-LCIO72mXvTkm-3g_DlOh_PwSDFQCEjShTb-S4UCEDqmKb8Yw0950joxCNWFu-JKOXPHJYAOtWFskBtSIxdfV0pQa5e9Wl5Z87zxh3x-S2hK6J--EZFTXYD7k1BWSKkq3nttOJ8qiBuy4SFcw8dQHayqzcSKVv_U9TIsgEO8PV46cuNfUoQHAcaX0ZFXLt2xd9ZDKyATy0EeV_hlYdybPNKaAUIGciGDtAUk6HcQsLWHxVnV__cQ_xDb_2MS7KNWiruIYYo318gFv5oCLbXcJuUZZKY5PTHpARJKZ7KLA_26Z2MwIUsCzBtL3rKuM_7k7GSQfcYCNJZUg1BquR7uRvHesu6TRD6tGhgLjtfxQ1lrwWxGTsfKPy4zKbDZeOKDLfGJ9jrRkxEXw2H2XndIRuaVuzJyqmAdcThmy7NcpDWhdXsIb5C77AGlpr7ppnVBG5gQQKnKJXkmH6SevhIxxBRYmE1uxlRqSMc5X4KwnO9TgfbCPcgOWbVZnMvfK6HesPYAOmjWJTpn965NTg-5PiRj2nZbkq0pdFN5JfEb31JDOXHF_7K8JD2AaC73cMTYKop0CtDnTtP9cIyl8pM5Gbr8ox6iagL6LEgMkuJinCEGwumvmBXN0eHXh3P1WsQOt1u-D7DcLC_oev2IuyjedRtYaZZ3AZzBLVKoBeDlwHQNgwQgnLLQBSPbktLghDQKOdT1yl0c_jcTTEgRjhLJQUwEQbi8l_pWf27RV3gvv9QBGm8ugrmydajdpcKM3yCBbWwXKgVfrmAOfPBu8pupXMbT-xRYubM-Nnvac-77d8s7dD1K_IK1BUKITTUt9C25FMdS4xzCSiQ_4JiLfguvbvgHAsSOqPYFgOv4Ng1eIFNz_aB?></g></svg>